<svg width="30" height="29" viewBox="0 0 30 29" fill="none" xmlns="http://www.w3.org/2000/svg">
<path d="M10.8312 7.25725C10.0143 8.28659 9.56739 9.56086 9.5625 10.875C9.5625 11.1154 9.46702 11.3459 9.29707 11.5158C9.12711 11.6858 8.8966 11.7812 8.65625 11.7812C5.372 11.7812 4.125 14.0723 4.125 15.4062C4.125 16.1802 4.32075 17.0701 4.92069 17.7552C5.49887 18.415 6.57912 19.0312 8.65625 19.0312H9.5625C9.5625 19.6493 9.61869 20.2565 9.72563 20.8438H8.65625C6.20213 20.8438 4.56362 20.1006 3.55587 18.9479C2.56987 17.8205 2.3125 16.4448 2.3125 15.4062C2.3125 13.2711 4.06156 10.3947 7.80075 10.0123C7.96392 8.58388 8.52823 7.23092 9.42838 6.10994C10.6192 4.65269 12.4625 3.625 15 3.625C16.5406 3.625 18.3368 4.1325 19.7669 5.30338C20.9233 6.2495 21.8114 7.61069 22.1249 9.40325C21.493 9.23361 20.8458 9.12676 20.1928 9.08425C19.9218 8.14891 19.3716 7.31862 18.6159 6.70444C17.5868 5.8885 16.3133 5.44228 15 5.4375C13.0063 5.4375 11.6777 6.22231 10.8312 7.25725ZM27.6875 19.0312C27.6875 20.1023 27.4765 21.163 27.0666 22.1525C26.6568 23.1421 26.056 24.0412 25.2986 24.7986C24.5412 25.556 23.6421 26.1568 22.6525 26.5666C21.663 26.9765 20.6023 27.1875 19.5312 27.1875C18.4602 27.1875 17.3996 26.9765 16.41 26.5666C15.4204 26.1568 14.5213 25.556 13.7639 24.7986C13.0065 24.0412 12.4057 23.1421 11.9959 22.1525C11.586 21.163 11.375 20.1023 11.375 19.0312C11.375 16.8681 12.2343 14.7935 13.7639 13.2639C15.2935 11.7343 17.3681 10.875 19.5312 10.875C21.6944 10.875 23.769 11.7343 25.2986 13.2639C26.8282 14.7935 27.6875 16.8681 27.6875 19.0312ZM23.7979 15.6709C23.7137 15.5865 23.6137 15.5195 23.5036 15.4738C23.3935 15.4281 23.2755 15.4046 23.1562 15.4046C23.037 15.4046 22.919 15.4281 22.8089 15.4738C22.6988 15.5195 22.5988 15.5865 22.5146 15.6709L17.7188 20.4686L16.5479 19.2959C16.4636 19.2116 16.3636 19.1448 16.2535 19.0992C16.1434 19.0536 16.0254 19.0301 15.9062 19.0301C15.7871 19.0301 15.6691 19.0536 15.559 19.0992C15.4489 19.1448 15.3489 19.2116 15.2646 19.2959C15.1804 19.3801 15.1135 19.4802 15.0679 19.5903C15.0223 19.7003 14.9989 19.8183 14.9989 19.9375C14.9989 20.0567 15.0223 20.1747 15.0679 20.2847C15.1135 20.3948 15.1804 20.4949 15.2646 20.5791L17.0771 22.3916C17.1613 22.476 17.2613 22.543 17.3714 22.5887C17.4815 22.6344 17.5995 22.6579 17.7188 22.6579C17.838 22.6579 17.956 22.6344 18.0661 22.5887C18.1762 22.543 18.2762 22.476 18.3604 22.3916L23.7979 16.9541C23.8823 16.8699 23.9492 16.7699 23.9949 16.6598C24.0406 16.5497 24.0641 16.4317 24.0641 16.3125C24.0641 16.1933 24.0406 16.0753 23.9949 15.9652C23.9492 15.8551 23.8823 15.7551 23.7979 15.6709Z" fill="black"/>
</svg>
