<svg width="37" height="37" viewBox="0 0 37 37" fill="none" xmlns="http://www.w3.org/2000/svg">
<path d="M29.3689 7.56975C27.9555 6.14205 26.2719 5.01007 24.4165 4.23983C22.561 3.46958 20.5707 3.0765 18.5618 3.0835C10.1443 3.0835 3.28386 9.94391 3.28386 18.3614C3.28386 21.0593 3.99302 23.6802 5.31886 25.9927L3.16052 33.9168L11.2543 31.7893C13.4897 33.0072 16.0026 33.6547 18.5618 33.6547C26.9793 33.6547 33.8397 26.7943 33.8397 18.3768C33.8397 14.2914 32.2518 10.4527 29.3689 7.56975ZM18.5618 31.0647C16.2801 31.0647 14.0447 30.4481 12.0868 29.2918L11.6243 29.0143L6.81427 30.2785L8.09386 25.5918L7.78552 25.1139C6.51788 23.0897 5.84478 20.7498 5.84302 18.3614C5.84302 11.3622 11.5472 5.65808 18.5464 5.65808C21.938 5.65808 25.1293 6.98391 27.5189 9.38891C28.7021 10.5667 29.6397 11.9676 30.2775 13.5104C30.9153 15.0533 31.2405 16.7074 31.2343 18.3768C31.2651 25.376 25.5609 31.0647 18.5618 31.0647ZM25.5301 21.5681C25.1447 21.3831 23.2639 20.4581 22.9247 20.3193C22.5701 20.196 22.3234 20.1343 22.0614 20.5043C21.7993 20.8897 21.0747 21.7531 20.8589 21.9997C20.643 22.2618 20.4118 22.2927 20.0264 22.0922C19.6409 21.9072 18.4076 21.491 16.9584 20.196C15.8176 19.1785 15.0622 17.9297 14.8309 17.5443C14.6151 17.1589 14.8001 16.9585 15.0005 16.7581C15.1701 16.5885 15.3859 16.311 15.5709 16.0952C15.7559 15.8793 15.833 15.7097 15.9564 15.4631C16.0797 15.201 16.018 14.9852 15.9255 14.8002C15.833 14.6152 15.0622 12.7343 14.7539 11.9635C14.4455 11.2235 14.1218 11.316 13.8905 11.3006H13.1505C12.8884 11.3006 12.4876 11.3931 12.133 11.7785C11.7939 12.1639 10.8072 13.0889 10.8072 14.9697C10.8072 16.8506 12.1793 18.6697 12.3643 18.9164C12.5493 19.1785 15.0622 23.0327 18.8855 24.6822C19.7951 25.0831 20.5043 25.3143 21.0593 25.4839C21.9689 25.7768 22.8014 25.7306 23.4643 25.6381C24.2043 25.5302 25.7305 24.7131 26.0389 23.8189C26.3626 22.9247 26.3626 22.1693 26.2547 21.9997C26.1468 21.8302 25.9155 21.7531 25.5301 21.5681Z" fill="black"/>
</svg>
