<svg width="18" height="18" viewBox="0 0 18 18" fill="none" xmlns="http://www.w3.org/2000/svg">
<path d="M14.625 7.77832V14.625C14.625 15.0726 14.4472 15.5018 14.1307 15.8182C13.8143 16.1347 13.3851 16.3125 12.9375 16.3125H5.0625C4.61495 16.3125 4.18572 16.1347 3.86926 15.8182C3.55279 15.5018 3.375 15.0726 3.375 14.625V3.375C3.375 2.92745 3.55279 2.49822 3.86926 2.18176C4.18572 1.86529 4.61495 1.6875 5.0625 1.6875H8.53418C8.83244 1.68755 9.11848 1.80603 9.32941 2.01691L14.2956 6.98309C14.5065 7.19402 14.625 7.48006 14.625 7.77832Z" stroke="white" stroke-width="1.5" stroke-linejoin="round"/>
<path d="M9 1.96875V6.1875C9 6.48587 9.11853 6.77202 9.32951 6.98299C9.54048 7.19397 9.82663 7.3125 10.125 7.3125H14.3438M6.1875 10.125H11.8125M6.1875 12.9375H11.8125" stroke="white" stroke-width="1.5" stroke-linecap="round" stroke-linejoin="round"/>
</svg>
