<svg width="31" height="31" viewBox="0 0 31 31" fill="none" xmlns="http://www.w3.org/2000/svg">
<path d="M6.91296 8.32816L7.74996 11.7893L6.91296 15.2354L10.0285 17.1015L11.935 20.1262L15.5 19.3136L19.065 20.1262L20.9715 17.1015L24.087 15.2354L23.25 11.7893L24.087 8.32816L20.987 6.46214L19.065 3.43739L15.5 4.26506L11.9505 3.45243L10.013 6.46214L6.91296 8.32816ZM15.5155 17.8689C13.8711 17.8689 12.2941 17.2348 11.1314 16.1059C9.96868 14.977 9.31546 13.446 9.31546 11.8495C9.31546 10.2531 9.96868 8.72201 11.1314 7.59315C12.2941 6.46429 13.8711 5.8301 15.5155 5.8301C18.9255 5.8301 21.7 8.52379 21.7 11.8345C21.7 15.1753 18.9255 17.8689 15.5155 17.8689ZM15.4845 16.3641C12.9115 16.3641 10.85 14.3476 10.85 11.8495C10.85 9.36651 12.9115 7.33496 15.4845 7.33496C18.0575 7.33496 20.15 9.36651 20.15 11.8495C20.15 14.3476 18.0575 16.3641 15.4845 16.3641ZM21.4365 18.0194L19.4525 21.3903L16.2285 20.683L20.15 29.4563L22.32 26.1456H26.195L21.4365 18.0194ZM9.50146 18.1248L11.439 21.5107L14.7405 20.7432L10.85 29.4563L8.67996 26.1456H4.80496L9.50146 18.1248Z" fill="black"/>
</svg>
