<svg width="20" height="20" viewBox="0 0 20 20" fill="none" xmlns="http://www.w3.org/2000/svg">
<g clip-path="url(#clip0_6_240)">
<path fill-rule="evenodd" clip-rule="evenodd" d="M17.5 7.95348C18.163 7.95348 18.7989 8.1985 19.2678 8.63463C19.7366 9.07076 20 9.66228 20 10.2791C20 10.8958 19.7366 11.4874 19.2678 11.9235C18.7989 12.3596 18.163 12.6046 17.5 12.6046C16.837 12.6046 16.2011 12.3596 15.7322 11.9235C15.2634 11.4874 15 10.8958 15 10.2791C15 9.66228 15.2634 9.07076 15.7322 8.63463C16.2011 8.1985 16.837 7.95348 17.5 7.95348ZM6.44875 5.88372C6.27319 6.04723 6.17457 6.26889 6.17457 6.5C6.17457 6.7311 6.27319 6.95276 6.44875 7.11627L8.91125 9.40697H0.9375C0.68886 9.40697 0.450403 9.49885 0.274587 9.6624C0.098772 9.82595 0 10.0478 0 10.2791C0 10.5104 0.098772 10.7322 0.274587 10.8957C0.450403 11.0593 0.68886 11.1512 0.9375 11.1512H8.91125L6.44875 13.4419C6.28315 13.6072 6.193 13.8258 6.19728 14.0518C6.20157 14.2777 6.29996 14.4933 6.47172 14.653C6.64349 14.8128 6.87522 14.9044 7.1181 14.9083C7.36097 14.9123 7.59603 14.8285 7.77375 14.6744L11.8363 10.8953L12.5 10.2791L11.8375 9.66279L7.775 5.88372C7.68794 5.80268 7.58456 5.73839 7.47078 5.69453C7.357 5.65067 7.23504 5.62809 7.11187 5.62809C6.98871 5.62809 6.86675 5.65067 6.75297 5.69453C6.63919 5.73839 6.53581 5.80268 6.44875 5.88372Z" fill="black"/>
</g>
<defs>
<clipPath id="clip0_6_240">
<rect width="18.6047" height="20" fill="white" transform="matrix(0 -1 1 0 0 19.5814)"/>
</clipPath>
</defs>
</svg>
