<svg width="16" height="17" viewBox="0 0 16 17" fill="none" xmlns="http://www.w3.org/2000/svg">
<g clip-path="url(#clip0_1_94)">
<path fill-rule="evenodd" clip-rule="evenodd" d="M10 14.5C10 15.0304 9.78929 15.5391 9.41421 15.9142C9.03914 16.2893 8.53043 16.5 8 16.5C7.46957 16.5 6.96086 16.2893 6.58579 15.9142C6.21071 15.5391 6 15.0304 6 14.5C6 13.9696 6.21071 13.4609 6.58579 13.0858C6.96086 12.7107 7.46957 12.5 8 12.5C8.53043 12.5 9.03914 12.7107 9.41421 13.0858C9.78929 13.4609 10 13.9696 10 14.5ZM11.78 5.659C11.6394 5.51855 11.4487 5.43966 11.25 5.43966C11.0512 5.43966 10.8606 5.51855 10.72 5.659L8.75 7.629V1.25C8.75 1.05109 8.67098 0.860322 8.53033 0.71967C8.38968 0.579018 8.19891 0.5 8 0.5C7.80109 0.5 7.61032 0.579018 7.46967 0.71967C7.32902 0.860322 7.25 1.05109 7.25 1.25V7.629L5.28 5.659C5.13782 5.52652 4.94978 5.4544 4.75548 5.45783C4.56118 5.46125 4.37579 5.53997 4.23838 5.67738C4.10096 5.81479 4.02225 6.00018 4.01882 6.19448C4.0154 6.38878 4.08752 6.57683 4.22 6.719L7.47 9.969L8 10.5L8.53 9.97L11.78 6.72C11.8497 6.65035 11.905 6.56765 11.9427 6.47662C11.9804 6.3856 11.9998 6.28803 11.9998 6.1895C11.9998 6.09097 11.9804 5.9934 11.9427 5.90238C11.905 5.81135 11.8497 5.72865 11.78 5.659Z" fill="black"/>
</g>
<defs>
<clipPath id="clip0_1_94">
<rect width="16" height="16" fill="white" transform="translate(0 0.5)"/>
</clipPath>
</defs>
</svg>
