<svg width="25" height="24" viewBox="0 0 25 24" fill="none" xmlns="http://www.w3.org/2000/svg">
<path d="M21.2942 3.6825C21.0999 3.48909 20.8561 3.35313 20.5897 3.28955C20.3234 3.22597 20.0447 3.23724 19.7843 3.32211L4.75727 8.34698C4.47858 8.43551 4.23231 8.60484 4.04956 8.8336C3.86682 9.06236 3.75579 9.34028 3.73051 9.63225C3.70524 9.92423 3.76684 10.2172 3.90754 10.4741C4.04823 10.731 4.26172 10.9403 4.52103 11.0756L10.7557 14.1647L13.8372 20.4355C13.961 20.6809 14.1505 20.887 14.3845 21.0307C14.6185 21.1743 14.8878 21.2499 15.1622 21.2489H15.2649C15.5587 21.2272 15.8393 21.1174 16.0701 20.9338C16.3009 20.7502 16.4713 20.5012 16.5591 20.2193L21.6434 5.19614C21.7342 4.93659 21.7495 4.65653 21.6877 4.38856C21.6259 4.12058 21.4894 3.87573 21.2942 3.6825ZM5.3941 9.76794L18.5106 5.38148L11.2282 12.682L5.3941 9.76794ZM15.2341 19.622L12.317 13.7734L19.5994 6.47295L15.2341 19.622Z" fill="white"/>
</svg>
