<svg width="30" height="29" viewBox="0 0 30 29" fill="none" xmlns="http://www.w3.org/2000/svg">
<path d="M26.25 23.6047C26.25 23.9131 26.1183 24.2088 25.8839 24.4269C25.6495 24.6449 25.3315 24.7675 25 24.7675H5C4.66848 24.7675 4.35054 24.6449 4.11612 24.4269C3.8817 24.2088 3.75 23.9131 3.75 23.6047V5.00001C3.75 4.69162 3.8817 4.39586 4.11612 4.17779C4.35054 3.95973 4.66848 3.83722 5 3.83722H25C25.3315 3.83722 25.6495 3.95973 25.8839 4.17779C26.1183 4.39586 26.25 4.69162 26.25 5.00001V23.6047ZM13.75 6.1628H6.25V22.4419H13.75V6.1628ZM23.75 15.4651H16.25V22.4419H23.75V15.4651ZM23.75 6.1628H16.25V13.1395H23.75V6.1628Z" fill="black"/>
</svg>
